{"title":"BBC Proms 2011_20 Folk Music of Percy Grainger","uid":6619917,"size":2753237733,"categoryP":"video","categoryS":"music_videos","magnet":"?xt=urn:btih:a1afa7d39464e54a1dd7480b09dd47fd448daec1&amp;dn=BBC+Proms+2011_20+Folk+Music+of+Percy+Grainger&amp;tr=udp%3A%2F%2Ftracker.openbittorrent.com%3A80&amp;tr=udp%3A%2F%2Fopen.demonii.com%3A1337&amp;tr=udp%3A%2F%2Ftracker.coppersurfer.tk%3A6969&amp;tr=udp%3A%2F%2Fexodus.desync.com%3A6969","seeders":0,"leechers":3,"uploader":"Hathor","files":4,"time":1313941399,"description":"Note: This torrent contains both a DVD ISO and an MP4 Video of the concert so I suggest you select whichever you prefer.\n\nProms 2011, Number 20\nGrainger's arrangements of folk music\nRecorded on 2 August\nBroadcast on BBC4 on 14 August\nThanks to GringoLoco &amp; The BBC :)\n\nNorthumbrian smallpiper Kathryn Tickell and friends celebrate the music of Percy Grainger in a Prom at the Royal Albert Hall. Molly on the Shore, Shepherd's Hey, Early One Morning - Grainger was a pioneering collector of folk music from around the world and the concert includes traditional and contemporary folk music using material which formed the basis of Grainger's arrangements. Special guests include English folk singer June Tabor and also on stage are the Northern Sinfonia conducted by John Harle. Introduced by Charles Hazlewood.\n\nGrainger:\nGreen Bushes (9 mins)\nMolly on the Shore (5 mins)\nShepherd's Hey - medley (12 mins)\nEarly One Morning (5 mins)\nShallow Brown (8 mins)\nScotch Strathspey and Reel (9 mins)\n\nInterspersed with traditional and contemporary folk music\nIncluding material which formed the basis for Grainger's arrangements\n\nJune Tabor: folk singer\nWilson Family\nBBC Singers (men's voices)\nKathryn Tickell Band\nNorthern Sinfonia\nJohn Harle: conductor\n\n*******************************************************\n\nFormat: DVD ISO PAL 16:9\nRuntime: 1:07\n\nVideo\nID : 224 (0xE0)\nFormat : MPEG Video\nFormat version : Version 2\nFormat profile : Main@Main\nFormat settings, BVOP : Yes\nFormat settings, Matrix : Default\nBit rate mode : Variable\nBit rate : 3 715 Kbps\nNominal bit rate : 9 544 Kbps\nWidth : 720 pixels\nHeight : 576 pixels\nDisplay aspect ratio : 16:9\nFrame rate : 25.000 fps\nStandard : PAL\nColor space : YUV\nChroma subsampling : 4:2:0\nBit depth : 8 bits\nScan type : Interlaced\nScan order : Top Field First\nCompression mode : Lossy\nBits/(Pixel*Frame) : 0.358\n\n\nAudio\nID : 192 (0xC0)\nFormat : MPEG Audio\nFormat version : Version 1\nFormat profile : Layer 2\nBit rate mode : Constant\nBit rate : 256 Kbps\nChannel(s) : 2 channels\nSampling rate : 48.0 KHz\nCompression mode : Lossy\n\n***************************************************\n\nFormat: MP4 468p\nRuntime: 1:08\n\nVideo\nID : 1\nFormat : AVC\nFormat/Info : Advanced Video Codec\nFormat profile : &lt;a class=&quot;__cf_email__&quot; href=&quot;/cdn-cgi/l/email-protection&quot; data-cfemail=&quot;9ad7fbf3f4dad6a9b4aa&quot;&gt;[email&amp;#160;protected]&lt;/a&gt;&lt;script cf-hash='f9e31' type=&quot;text/javascript&quot;&gt;\n/* &lt;![CDATA[ */!function(){try{var t=&quot;currentScript&quot;in document?document.currentScript:function(){for(var t=document.getElementsByTagName(&quot;script&quot;),e=t.length;e--;)if(t[e].getAttribute(&quot;cf-hash&quot;))return t[e]}();if(t&amp;&amp;t.previousSibling){var e,r,n,i,c=t.previousSibling,a=c.getAttribute(&quot;data-cfemail&quot;);if(a){for(e=&quot;&quot;,r=parseInt(a.substr(0,2),16),n=2;a.length-n;n+=2)i=parseInt(a.substr(n,2),16)^r,e+=String.fromCharCode(i);e=document.createTextNode(e),c.parentNode.replaceChild(e,c)}}}catch(u){}}();/* ]]&gt; */&lt;/script&gt;\nFormat settings, CABAC : Yes\nFormat settings, ReFrames : 4 frames\nCodec ID : avc1\nCodec ID/Info : Advanced Video Coding\nDuration : 1h 8mn\nBit rate mode : Constant\nBit rate : 1 404 Kbps\nWidth : 832 pixels\nHeight : 468 pixels\nDisplay aspect ratio : 16:9\nFrame rate mode : Constant\nFrame rate : 25.000 fps\nStandard : PAL\nColor space : YUV\nChroma subsampling : 4:2:0\nBit depth : 8 bits\nScan type : Progressive\nBits/(Pixel*Frame) : 0.144\nStream size : 682 MiB (93%)\n\nAudio\nID : 2\nFormat : AAC\nFormat/Info : Advanced Audio Codec\nFormat profile : HE-AAC / LC\nCodec ID : 40\nDuration : 1h 8mn\nBit rate mode : Variable\nBit rate : 96.0 Kbps\nChannel(s) : 2 channels\nChannel positions : Front: L R\nSampling rate : 48.0 KHz / 24.0 KHz\nCompression mode : Lossy\nStream size : 46.1 MiB (6%)","torrent":{"xt":"urn:btih:a1afa7d39464e54a1dd7480b09dd47fd448daec1","amp;dn":"BBC+Proms+2011_20+Folk+Music+of+Percy+Grainger","amp;tr":["udp%3A%2F%2Ftracker.openbittorrent.com%3A80","udp%3A%2F%2Fopen.demonii.com%3A1337","udp%3A%2F%2Ftracker.coppersurfer.tk%3A6969","udp%3A%2F%2Fexodus.desync.com%3A6969"],"infoHash":"a1afa7d39464e54a1dd7480b09dd47fd448daec1","infoHashBuffer":{"type":"Buffer","data":[161,175,167,211,148,100,229,74,29,215,72,11,9,221,71,253,68,141,174,193]},"announce":[],"urlList":[]}}